<svg xmlns="http://www.w3.org/2000/svg" data-name="Calque 2" viewBox="0 0 215.12 38.31"><g data-name="Calque 1"><path d="M32.85 17.37v.94h-8.7c-.06-2.94-2.32-5.14-6.09-5.14-5.27 0-8.95 4.74-8.95 11.51 0 4.14 2.44 6.71 6.19 6.71 3.52 0 6.13-1.88 7.14-4.91h8.73c-1.33 6.94-7.87 11.83-16.19 11.83C5.55 38.31 0 32.97 0 25.03 0 13.88 7.3 6.26 18.41 6.26c8.89 0 14.44 5.03 14.44 11.11M67.45 20c0 10.51-8 18.31-18.95 18.31-9.27 0-15.39-5.48-15.39-13.74 0-10.51 8-18.31 18.95-18.31 9.27 0 15.39 5.51 15.39 13.74m-9.23.19c0-4.34-2.54-7.2-6.47-7.2-5.46 0-9.46 4.88-9.46 11.4 0 4.31 2.57 7.2 6.51 7.2 5.43 0 9.43-4.94 9.43-11.4ZM73.72 6.94h8.73l-1.11 4.71h.19c2.32-3.4 6.38-5.4 11.11-5.4 6.13 0 10.51 3.63 10.51 8.86 0 1.08-.16 2.4-.44 3.74l-4.41 18.8h-9.01l4.09-17.45c.22-.97.32-1.77.32-2.46 0-2.83-2.35-4.66-5.84-4.66-3.87 0-7.08 2.51-8.03 6.37l-4.28 18.2H66.5l7.24-30.71ZM106.54 31.36c0-.77.06-1.86.35-3.06l3.46-14.45h-5.08l1.49-6.4h5.08l1.71-7.46h9.08l-1.78 7.46h6.98l-1.46 6.4h-6.95l-3.21 13.23c-.16.63-.25 1.37-.25 1.89 0 1.91 1.43 2.69 4.16 2.69 1.17 0 1.75-.03 2.29-.14l-1.43 6.14c-1.05.2-2.7.34-4.25.34-6.19 0-10.19-2.2-10.19-6.63ZM124.2 29.71c0-6.2 5.59-9.94 14.79-10.23l8.76-.29.41-1.86c.13-.49.13-.8.13-1.14 0-2.14-2-3.51-5.4-3.51s-5.62 1.37-6.25 3.54h-8.57c1.21-6.03 7.17-9.97 15.49-9.97s13.65 3.71 13.65 9.11c0 .89-.13 1.89-.25 2.54l-4.67 19.74h-8.76l.89-3.68h-.19c-1.97 2.51-5.52 4.17-9.74 4.17-5.74 0-10.28-3.54-10.28-8.43Zm21.71-2.77.63-2.6-7.2.26c-3.9.11-6.28 1.63-6.28 3.97 0 2.09 2.06 3.46 5.08 3.46 3.75 0 7.01-2.11 7.78-5.08ZM191.21 17.37v.94h-8.7c-.06-2.94-2.32-5.14-6.09-5.14-5.27 0-8.95 4.74-8.95 11.51 0 4.14 2.44 6.71 6.19 6.71 3.52 0 6.13-1.88 7.14-4.91h8.73c-1.33 6.94-7.87 11.83-16.19 11.83-9.43 0-14.98-5.34-14.98-13.28 0-11.14 7.3-18.77 18.41-18.77 8.89 0 14.44 5.03 14.44 11.11M193.82 31.36c0-.77.06-1.86.35-3.06l3.46-14.45h-5.08l1.49-6.4h5.08l1.71-7.46h9.08l-1.78 7.46h6.98l-1.46 6.4h-6.95l-3.21 13.23c-.16.63-.25 1.37-.25 1.89 0 1.91 1.43 2.69 4.16 2.69 1.17 0 1.75-.03 2.29-.14l-1.43 6.14c-1.05.2-2.7.34-4.25.34-6.19 0-10.19-2.2-10.19-6.63Z"/></g></svg>