<svg xmlns="http://www.w3.org/2000/svg" data-name="Calque 2" viewBox="0 0 68.41 32.08"><g data-name="Calque 1"><path d="M0 18.25C0 7.91 7.36 0 18.12 0c8.79 0 14.63 5.11 14.63 13.14 0 1.49-.13 3.31-.48 4.77H8.47c-.03.34-.06.66-.06.97 0 4.06 2.7 6.86 7.01 6.86 3.62 0 6.25-1.66 7.3-4.11h8.54c-1.75 6.11-7.97 10.46-16.19 10.46-9.49 0-15.08-5.43-15.08-13.83Zm24.18-5.51c.03-.2.06-.57.06-.86 0-3.03-2.16-5.63-6.44-5.63s-7.33 2.74-8.41 6.48h14.79ZM38.98.69h8.73L46.6 5.4h.19C49.11 2 53.17 0 57.9 0c6.13 0 10.51 3.63 10.51 8.86 0 1.08-.16 2.4-.44 3.74l-4.41 18.8h-9.01l4.09-17.45c.22-.97.32-1.77.32-2.46 0-2.83-2.35-4.66-5.84-4.66-3.87 0-7.08 2.51-8.03 6.37l-4.28 18.2h-9.05z"/></g></svg>